<svg width="58" height="58" viewBox="0 0 58 58" fill="none" xmlns="http://www.w3.org/2000/svg">
<rect width="58" height="58" fill="black"/>
<rect x="9.5" y="9.5" width="39" height="39" stroke="black"/>
<path fill-rule="evenodd" clip-rule="evenodd" d="M12.75 25.5833C12.75 21.7156 14.2865 18.0063 17.0214 15.2714C19.7563 12.5365 23.4656 11 27.3333 11C30.4533 11 33.0283 11.7267 35.16 13.0333C37.285 14.3333 38.9 16.1667 40.1733 18.27C42.5867 22.2583 43.8733 27.4117 45.0633 32.185L45.2133 32.78L45.6017 34.3333H41.0833V41H35.25V47.25H19.4167V37.8333C17.3696 36.5119 15.6867 34.6982 14.522 32.558C13.3573 30.4179 12.7481 28.0198 12.75 25.5833ZM29.7183 17.2567L30.6683 20.2267L33.715 19.565L36.1017 23.6967L34.0917 26.0033L36.1017 28.31L33.715 32.4433L30.6683 31.78L29.7183 34.75H24.95L24 31.78L20.9533 32.4433L18.5667 28.31L20.5767 26.0033L18.5667 23.6967L20.9533 19.5633L24 20.2267L24.95 17.2567H29.7183ZM29.6583 26.0033C29.6583 25.388 29.4139 24.7979 28.9788 24.3628C28.5437 23.9278 27.9536 23.6833 27.3383 23.6833C26.723 23.6833 26.1329 23.9278 25.6979 24.3628C25.2628 24.7979 25.0183 25.388 25.0183 26.0033C25.0183 26.6186 25.2628 27.2087 25.6979 27.6438C26.1329 28.0789 26.723 28.3233 27.3383 28.3233C27.9536 28.3233 28.5437 28.0789 28.9788 27.6438C29.4139 27.2087 29.6583 26.6186 29.6583 26.0033Z" fill="white"/>
</svg>
