<svg width="58" height="58" viewBox="0 0 58 58" fill="none" xmlns="http://www.w3.org/2000/svg">
<rect x="1.90164" y="1.90164" width="54.1967" height="54.1967" fill="white" stroke="black" stroke-width="3.80328"/>
<path d="M23.2882 19.1422L19.7172 21.142L21.7169 17.571L19.7172 14L23.2882 15.9998L26.8592 14L24.8594 17.571L26.8592 21.142L23.2882 19.1422ZM40.429 33.1406L44 31.1408L42.0002 34.7118L44 38.2828L40.429 36.2831L36.858 38.2828L38.8578 34.7118L36.858 31.1408L40.429 33.1406ZM44 14L42.0002 17.571L44 21.142L40.429 19.1422L36.858 21.142L38.8578 17.571L36.858 14L40.429 15.9998L44 14ZM31.63 29.3982L35.1153 25.9129L32.0871 22.8847L28.6018 26.37L31.63 29.3982ZM33.1013 21.5562L36.4438 24.8987C37.0008 25.4272 37.0008 26.3557 36.4438 26.9127L19.7743 43.5822C19.2172 44.1393 18.2888 44.1393 17.7603 43.5822L14.4178 40.2397C13.8607 39.7112 13.8607 38.7828 14.4178 38.2257L31.0872 21.5562C31.6443 20.9992 32.5728 20.9992 33.1013 21.5562Z" fill="black"/>
</svg>
