<svg width="58" height="58" viewBox="0 0 58 58" fill="none" xmlns="http://www.w3.org/2000/svg">
<rect x="1.90164" y="1.90164" width="54.1967" height="54.1967" fill="#00FF66" stroke="black" stroke-width="3.80328"/>
<path d="M25.6691 36.5C28.6675 36.5 31.2291 35.4426 33.3541 33.3279C35.4791 31.2135 36.5416 28.6458 36.5416 25.625C36.5416 22.6272 35.4791 20.0791 33.3541 17.9808C31.2291 15.8825 28.6675 14.8333 25.6691 14.8333C22.6708 14.8333 20.1222 15.8825 18.0233 17.9808C15.9244 20.0791 14.875 22.6272 14.875 25.625C14.875 28.6458 15.9244 31.2135 18.0233 33.3279C20.1222 35.4426 22.6708 36.5 25.6691 36.5ZM24.4583 30.3333V19.2083H26.9583V30.3333H24.4583ZM18.4166 30.3333V22.6666H20.9166V30.3333H18.4166ZM30.5 30.3333V24.375H33V30.3333H30.5ZM43.9167 45.6666L34.2083 35.9166C33.0416 36.8889 31.7328 37.6458 30.2816 38.1875C28.8303 38.7291 27.292 39 25.6666 39C21.9722 39 18.8333 37.7014 16.25 35.1041C13.6667 32.5069 12.375 29.3514 12.375 25.6375C12.375 21.9233 13.6639 18.7775 16.2417 16.2C18.8191 13.6222 21.965 12.3333 25.6791 12.3333C29.393 12.3333 32.5486 13.625 35.1458 16.2083C37.743 18.7916 39.0416 21.9306 39.0416 25.625C39.0416 27.2502 38.7708 28.7886 38.2291 30.24C37.6875 31.6911 36.9305 33 35.9583 34.1666L45.6666 43.875L43.9167 45.6666Z" fill="black"/>
</svg>
