<svg width="58" height="58" viewBox="0 0 58 58" fill="none" xmlns="http://www.w3.org/2000/svg">
<rect x="1.90164" y="1.90164" width="54.1967" height="54.1967" fill="#FFD700" stroke="black" stroke-width="3.80328"/>
<path d="M17.0625 27.2185L22.3125 21.9685C22.6042 21.6768 22.9479 21.4685 23.3438 21.3435C23.7396 21.2185 24.1458 21.1977 24.5625 21.281L26.9688 21.7185C25.8229 23.0102 24.8958 24.2341 24.1875 25.3904C23.4792 26.5466 22.8229 27.8956 22.2187 29.4372L17.0625 27.2185ZM23.375 29.9997C23.9375 28.4789 24.6458 27.0466 25.5 25.7029C26.3542 24.3591 27.3229 23.1456 28.4062 22.0622C30.2396 20.2289 32.3333 18.8591 34.6875 17.9529C37.0417 17.0466 39.2396 16.7706 41.2812 17.1247C41.6354 19.1664 41.3646 21.3643 40.4688 23.7185C39.5729 26.0727 38.2083 28.1664 36.375 29.9997C35.2917 31.0831 34.0729 32.0518 32.7188 32.906C31.3646 33.7602 29.9271 34.4685 28.4062 35.031L23.375 29.9997ZM32.3125 26.0935C32.7292 26.5102 33.2448 26.7185 33.8594 26.7185C34.4739 26.7185 34.9896 26.5102 35.4062 26.0935C35.8229 25.6768 36.0312 25.1612 36.0312 24.5466C36.0312 23.9321 35.8229 23.4164 35.4062 22.9997C34.9896 22.5831 34.4739 22.3747 33.8594 22.3747C33.2448 22.3747 32.7292 22.5831 32.3125 22.9997C31.8958 23.4164 31.6875 23.9321 31.6875 24.5466C31.6875 25.1612 31.8958 25.6768 32.3125 26.0935ZM31.2188 41.3435L28.9688 36.1872C30.5104 35.5831 31.8594 34.9268 33.0156 34.2185C34.1719 33.5102 35.3958 32.5831 36.6875 31.4372L37.125 33.8435C37.2083 34.2602 37.1875 34.6716 37.0625 35.0779C36.9375 35.4841 36.7292 35.8331 36.4375 36.1247L31.2188 41.3435ZM19.0625 34.0622C19.7917 33.3331 20.6771 32.9633 21.7187 32.9529C22.7604 32.9424 23.6458 33.3018 24.375 34.031C25.1042 34.7602 25.4688 35.6456 25.4688 36.6872C25.4688 37.7289 25.1042 38.6143 24.375 39.3435C23.8333 39.8852 22.9896 40.3331 21.8438 40.6872C20.6979 41.0414 18.9896 41.3747 16.7188 41.6872C17.0312 39.4164 17.3646 37.7133 17.7187 36.5779C18.0729 35.4424 18.5208 34.6039 19.0625 34.0622Z" fill="black"/>
</svg>
