<svg width="163" height="60" viewBox="0 0 163 60" fill="none" xmlns="http://www.w3.org/2000/svg">
<g clip-path="url(#clip0_210_147)">
<g filter="url(#filter0_d_210_147)">
<path d="M0.0111222 26.5415C7.9708 22.1399 36.2644 5.0935 42.8151 2.12075C43.0885 1.99656 43.3947 1.96801 43.6866 2.03582C44.1448 2.14288 44.608 2.35629 44.6401 2.80452C44.6202 7.94776 44.6737 26.5494 44.6416 34.038C44.501 39.2355 45.0263 39.2569 44.1441 42.3181C43.7001 43.837 42.738 45.5121 41.3548 46.4536C35.7697 50.5412 29.7186 53.055 23.9187 56.6715C22.7018 57.346 21.7097 57.3496 20.5977 56.5181C20.5634 56.4924 20.5284 56.4681 20.492 56.446C18.2616 55.0849 14.124 52.5996 11.7815 51.1736C11.2412 50.8916 10.8508 50.5233 10.728 49.9288C10.6038 49.3293 11.1298 48.9238 11.6059 48.6605C16.9711 45.5171 24.6567 41.2147 29.6087 38.3547C30.1254 38.0657 30.4745 37.8058 30.9184 37.2534C31.9648 35.9687 32.176 34.2607 32.1617 32.6455C32.1075 30.0389 32.2267 27.6264 31.9555 25.3753C31.8506 24.5031 30.9555 23.9364 30.1369 24.254C30.1311 24.2561 30.1254 24.2583 30.119 24.2611C30.069 24.2811 30.0219 24.3061 29.9748 24.3325C20.8703 29.4936 11.2419 35.1957 2.58346 39.9599C2.52921 39.9899 2.47854 40.0249 2.42858 40.0613C1.26803 40.9135 -0.0916571 39.9392 0.00683966 38.566C0.00398468 36.3919 -0.00886264 29.5557 0.0104085 26.543V26.5415H0.0111222Z" fill="#EC1C24"/>
<path d="M0.0111222 26.5415C7.9708 22.1399 36.2644 5.0935 42.8151 2.12075C43.0885 1.99656 43.3947 1.96801 43.6866 2.03582C44.1448 2.14288 44.608 2.35629 44.6401 2.80452C44.6202 7.94776 44.6737 26.5494 44.6416 34.038C44.501 39.2355 45.0263 39.2569 44.1441 42.3181C43.7001 43.837 42.738 45.5121 41.3548 46.4536C35.7697 50.5412 29.7186 53.055 23.9187 56.6715C22.7018 57.346 21.7097 57.3496 20.5977 56.5181C20.5634 56.4924 20.5284 56.4681 20.492 56.446C18.2616 55.0849 14.124 52.5996 11.7815 51.1736C11.2412 50.8916 10.8508 50.5233 10.728 49.9288C10.6038 49.3293 11.1298 48.9238 11.6059 48.6605C16.9711 45.5171 24.6567 41.2147 29.6087 38.3547C30.1254 38.0657 30.4745 37.8058 30.9184 37.2534C31.9648 35.9687 32.176 34.2607 32.1617 32.6455C32.1075 30.0389 32.2267 27.6264 31.9555 25.3753C31.8506 24.5031 30.9555 23.9364 30.1369 24.254C30.1311 24.2561 30.1254 24.2583 30.119 24.2611C30.069 24.2811 30.0219 24.3061 29.9748 24.3325C20.8703 29.4936 11.2419 35.1957 2.58346 39.9599C2.52921 39.9899 2.47854 40.0249 2.42858 40.0613C1.26803 40.9135 -0.0916571 39.9392 0.00683966 38.566C0.00398468 36.3919 -0.00886264 29.5557 0.0104085 26.543V26.5415H0.0111222Z" stroke="#231F20" stroke-width="0.356872" stroke-miterlimit="10"/>
</g>
<path d="M67.8097 19.7645C67.0896 20.8951 66.0632 21.7837 64.7306 22.4296C63.3981 23.0756 61.8564 23.3989 60.107 23.3989V23.4189H55.806V23.3989H52.3936V8.45667H60.087C61.8507 8.45667 63.3988 8.77999 64.7313 9.42593C66.0639 10.0719 67.0903 10.9605 67.8104 12.0911C68.5306 13.2216 68.8903 14.5078 68.8903 15.9474C68.8903 17.387 68.5299 18.6332 67.8104 19.7638L67.8097 19.7645ZM60.2883 19.9058C61.5809 19.9058 62.6472 19.5697 63.4887 18.8959C64.3302 18.2228 64.7506 17.24 64.7506 15.9481C64.7506 15.2215 64.5486 14.552 64.1446 13.9389C63.7407 13.3265 63.1989 12.8419 62.5195 12.485C61.8393 12.1282 61.0962 11.9497 60.2883 11.9497H56.5732V19.9051H60.2883V19.9058Z" fill="black"/>
<path d="M84.7811 18.25H73.7966C73.8773 19.1921 74.2306 19.9694 74.8565 20.5818C75.4825 21.1942 76.3475 21.5004 77.451 21.5004C78.0434 21.5004 78.5987 21.3997 79.1169 21.1977C79.635 20.9958 80.0526 20.7067 80.3688 20.3298C80.685 19.953 80.8434 19.5219 80.8434 19.0372H84.7811C84.7811 19.9658 84.4885 20.7909 83.9025 21.5111C83.3173 22.2312 82.4722 22.793 81.3687 23.1969C80.2646 23.6009 78.9527 23.8029 77.431 23.8029C76.0306 23.8029 74.7452 23.5538 73.5746 23.0556C72.4034 22.5574 71.4812 21.8544 70.8082 20.9458C70.1351 20.0372 69.7982 18.9973 69.7982 17.826C69.7982 16.6548 70.1344 15.5949 70.8082 14.6863C71.4812 13.7777 72.3962 13.0782 73.5539 12.5864C74.7116 12.0954 76.0035 11.8491 77.431 11.8491C78.8585 11.8491 80.1632 12.0911 81.2674 12.5757C82.3708 13.0603 83.2295 13.7434 83.8419 14.6249C84.4543 15.5063 84.7669 16.5399 84.7811 17.7247V17.8253V18.2493V18.25ZM73.9986 16.4528H80.7021C80.3388 14.8775 79.2546 14.0903 77.451 14.0903C75.6474 14.0903 74.469 14.8775 73.9979 16.4528H73.9986Z" fill="black"/>
<path d="M93.5039 16.9174L94.5738 16.8974C96.1084 16.8974 97.3531 17.103 98.3096 17.5134C99.2653 17.9245 99.7435 18.7417 99.7435 19.9665C99.7435 21.5553 99.0433 22.6016 97.6436 23.1063C96.2433 23.6109 94.6145 23.8636 92.7573 23.8636C90.9002 23.8636 89.2771 23.5838 87.7697 23.0256C86.2623 22.4675 85.5085 21.3933 85.5085 19.8052L89.4862 19.8252C89.4862 20.4982 89.8096 20.9593 90.4555 21.2084C91.1015 21.4575 91.8687 21.5817 92.7573 21.5817C93.8479 21.5817 94.6416 21.4604 95.1398 21.2184C95.638 20.9765 95.8871 20.5996 95.8871 20.0878C95.8871 19.5761 95.6009 19.2699 95.0292 19.1286C94.4568 18.9872 93.9286 18.9166 93.444 18.9166H92.5553C91.3034 18.9166 90.1857 18.8531 89.2036 18.7246C88.2208 18.5968 87.3593 18.2871 86.6191 17.796C85.8783 17.305 85.5085 16.5612 85.5085 15.5648C85.5085 14.071 86.2351 13.0946 87.689 12.6371C89.1429 12.1796 90.8188 11.9504 92.7167 11.9504C94.6145 11.9504 96.1426 12.2267 97.583 12.7784C99.0233 13.3308 99.7435 14.4007 99.7435 15.9888L95.8264 15.9688C95.8264 15.2694 95.456 14.8047 94.7159 14.5756C93.9757 14.3465 93.3091 14.2323 92.7167 14.2323C90.5626 14.2323 89.4862 14.6634 89.4862 15.5249C89.4862 16.4406 90.5362 16.9117 92.636 16.9381C93.0129 16.9381 93.3026 16.9317 93.5046 16.9181L93.5039 16.9174Z" fill="black"/>
<path d="M101.459 14.8882C102.119 13.9796 103.021 13.2694 104.165 12.7577C105.309 12.2459 106.575 11.9904 107.961 11.9904C109.953 11.9904 111.552 12.4244 112.756 13.293C113.961 14.1609 114.752 15.3293 115.129 16.7961H111.171C111.01 16.1366 110.643 15.5948 110.071 15.1709C109.498 14.7469 108.801 14.5349 107.981 14.5349C106.904 14.5349 106.049 14.8475 105.416 15.4735C104.783 16.0994 104.467 16.9238 104.467 17.9473C104.467 18.5533 104.601 19.115 104.871 19.6332C105.14 20.1514 105.534 20.5689 106.052 20.8851C106.57 21.2013 107.186 21.3597 107.9 21.3597C108.748 21.3597 109.465 21.1478 110.051 20.7238C110.637 20.2998 111.003 19.7645 111.151 19.1186H115.109C114.974 19.9801 114.577 20.778 113.918 21.5111C113.258 22.2448 112.407 22.8272 111.363 23.2576C110.32 23.688 109.185 23.9035 107.961 23.9035C106.601 23.9035 105.349 23.6444 104.205 23.1263C103.061 22.6081 102.152 21.8943 101.479 20.9857C100.806 20.0771 100.469 19.0643 100.469 17.9466C100.469 16.8289 100.799 15.7961 101.458 14.8875L101.459 14.8882Z" fill="black"/>
<path d="M130.818 18.25H119.833C119.914 19.1921 120.267 19.9694 120.893 20.5818C121.519 21.1942 122.384 21.5004 123.487 21.5004C124.08 21.5004 124.635 21.3997 125.153 21.1977C125.672 20.9958 126.089 20.7067 126.405 20.3298C126.721 19.953 126.88 19.5219 126.88 19.0372H130.818C130.818 19.9658 130.525 20.7909 129.939 21.5111C129.354 22.2312 128.509 22.793 127.405 23.1969C126.301 23.6009 124.989 23.8029 123.467 23.8029C122.067 23.8029 120.782 23.5538 119.611 23.0556C118.44 22.5574 117.518 21.8544 116.845 20.9458C116.172 20.0372 115.835 18.9973 115.835 17.826C115.835 16.6548 116.171 15.5949 116.845 14.6863C117.518 13.7777 118.433 13.0782 119.59 12.5864C120.748 12.0954 122.04 11.8491 123.467 11.8491C124.895 11.8491 126.2 12.0911 127.304 12.5757C128.407 13.0603 129.266 13.7434 129.878 14.6249C130.491 15.5063 130.803 16.5399 130.818 17.7247V17.8253V18.2493V18.25ZM120.035 16.4528H126.739C126.375 14.8775 125.291 14.0903 123.487 14.0903C121.684 14.0903 120.505 14.8775 120.034 16.4528H120.035Z" fill="black"/>
<path d="M144.285 13.6056C145.174 14.6555 145.618 16.4056 145.618 18.8552V23.3982H141.68V18.9159C141.68 18.0544 141.623 17.3278 141.508 16.7354C141.394 16.143 141.128 15.6448 140.711 15.2415C140.293 14.8376 139.661 14.6356 138.813 14.6356C137.965 14.6356 137.261 14.834 136.824 15.2315C136.386 15.6284 136.107 16.1266 135.986 16.7254C135.865 17.3242 135.804 18.068 135.804 18.9566V23.3989H131.866V12.3944H135.804V13.8076C136.854 12.6235 138.442 12.0304 140.569 12.0304C142.157 12.0304 143.396 12.5557 144.284 13.6056H144.285Z" fill="black"/>
<path d="M157.168 8.47742H161.106V23.359H157.572L157.33 22.0664C156.159 23.1299 154.355 23.6416 151.918 23.601C150.882 23.601 149.96 23.3419 149.152 22.8237C148.344 22.3055 147.715 21.5989 147.264 20.7039C146.813 19.8088 146.581 18.8096 146.567 17.7054V17.6048C146.581 16.6491 146.809 15.7405 147.254 14.879C147.698 14.0175 148.324 13.3209 149.132 12.7891C149.94 12.2574 150.868 11.9919 151.918 11.9919C154.234 11.9919 155.984 12.5372 157.168 13.6278V8.47884V8.47742ZM155.623 20.7338C156.114 20.4241 156.495 20.0137 156.764 19.5019C157.033 18.9902 157.168 18.4456 157.168 17.866V17.846C157.168 16.8361 156.872 16.0117 156.279 15.3722C155.687 14.7327 154.913 14.4129 153.957 14.4129C153.231 14.4129 152.615 14.5714 152.109 14.8876C151.605 15.2037 151.224 15.6113 150.969 16.1095C150.713 16.6077 150.579 17.1259 150.565 17.664C150.579 18.2836 150.709 18.8624 150.959 19.4006C151.208 19.9394 151.588 20.3734 152.099 20.7031C152.611 21.0329 153.23 21.1978 153.957 21.1978C154.576 21.1978 155.131 21.0429 155.623 20.7331V20.7338Z" fill="black"/>
<path d="M66.0025 32.6869H70.2829V40.461C70.2829 41.9149 69.8924 43.2203 69.1116 44.378C68.3308 45.5357 67.2744 46.4379 65.9412 47.0838C64.6086 47.7298 63.1276 48.0531 61.4988 48.0531C59.87 48.0531 58.2748 47.7298 56.8752 47.0838C55.4748 46.4379 54.3642 45.5393 53.5434 44.388C52.7219 43.2367 52.3051 41.9349 52.2915 40.481V32.6869H56.6325V40.5417C56.6325 41.5109 56.8916 42.2953 57.4098 42.8941C57.9279 43.493 58.5575 43.9205 59.2976 44.176C60.0378 44.4316 60.7779 44.56 61.5188 44.56C62.1783 44.56 62.8514 44.4323 63.538 44.176C64.2246 43.9205 64.8063 43.493 65.2845 42.8941C65.762 42.2953 66.0011 41.5109 66.0011 40.5417V32.6869H66.0025Z" fill="black"/>
<path d="M86.3556 42.3795C86.3285 43.3352 86.093 44.2438 85.649 45.1053C85.2051 45.9668 84.5791 46.6634 83.7712 47.1952C82.9632 47.7269 82.0411 47.9924 81.0047 47.9924C78.6893 47.9924 76.9392 47.4471 75.7551 46.3565V51.4648H71.8174V36.6239H75.3511L75.6338 38.0978C76.8179 36.9137 78.6087 36.3413 81.0047 36.3812C82.0411 36.3812 82.9597 36.6367 83.7612 37.1485C84.562 37.6603 85.1915 38.3597 85.649 39.2483C86.1065 40.137 86.3421 41.1333 86.3556 42.2368V42.3781V42.3795ZM80.7927 45.0846C81.2973 44.7613 81.6813 44.3473 81.9433 43.8427C82.2059 43.3381 82.3437 42.8163 82.3572 42.2782C82.3301 41.2818 82.0339 40.4474 81.4686 39.7744C80.9034 39.1013 80.0683 38.7644 78.9648 38.7644C78.3453 38.7644 77.79 38.9193 77.2989 39.2291C76.8072 39.5388 76.4275 39.9492 76.1584 40.461C75.8886 40.9727 75.7544 41.518 75.7544 42.0962V42.1369C75.7544 43.1468 76.0506 43.9712 76.643 44.6107C77.2354 45.2502 78.0091 45.57 78.9648 45.57C79.6779 45.57 80.2874 45.4087 80.792 45.0853L80.7927 45.0846Z" fill="black"/>
<path d="M87.634 36.781C88.4224 36.781 89.0615 36.1738 89.0615 35.4248C89.0615 34.6759 88.4224 34.0687 87.634 34.0687C86.8457 34.0687 86.2065 34.6759 86.2065 35.4248C86.2065 36.1738 86.8457 36.781 87.634 36.781Z" stroke="#231F20" stroke-width="0.285498" stroke-miterlimit="10"/>
<path d="M87.8588 36.0572L87.4584 35.5904H87.2693V36.0572H86.7418V34.6119H87.8667C87.988 34.6119 88.0951 34.6319 88.1879 34.6725C88.2807 34.7132 88.3535 34.7689 88.4048 34.8417C88.4562 34.9138 88.4819 34.998 88.4819 35.0929V35.1008C88.4819 35.2243 88.4455 35.327 88.3734 35.4077C88.3014 35.4884 88.2014 35.5426 88.0737 35.5697L88.4934 36.0579H87.8588V36.0572ZM87.9416 35.0159C87.9238 34.998 87.9002 34.9873 87.871 34.9837C87.8417 34.9802 87.7967 34.978 87.7375 34.978H87.6747C87.634 34.9795 87.4991 34.9802 87.2686 34.9802V35.2186H87.7375C87.7974 35.2186 87.8417 35.2164 87.871 35.2128C87.9002 35.2093 87.9238 35.1986 87.9416 35.1829C87.9595 35.1672 87.968 35.1393 87.968 35.1015C87.968 35.0637 87.9595 35.0344 87.9416 35.0166V35.0159Z" fill="black"/>
</g>
<defs>
<filter id="filter0_d_210_147" x="-0.38117" y="1.82159" width="48.2655" height="58.7554" filterUnits="userSpaceOnUse" color-interpolation-filters="sRGB">
<feFlood flood-opacity="0" result="BackgroundImageFix"/>
<feColorMatrix in="SourceAlpha" type="matrix" values="0 0 0 0 0 0 0 0 0 0 0 0 0 0 0 0 0 0 127 0" result="hardAlpha"/>
<feOffset dx="1.41607" dy="1.61877"/>
<feGaussianBlur stdDeviation="0.809386"/>
<feColorMatrix type="matrix" values="0 0 0 0 0 0 0 0 0 0 0 0 0 0 0 0 0 0 0.75 0"/>
<feBlend mode="normal" in2="BackgroundImageFix" result="effect1_dropShadow_210_147"/>
<feBlend mode="normal" in="SourceGraphic" in2="effect1_dropShadow_210_147" result="shape"/>
</filter>
<clipPath id="clip0_210_147">
<rect width="163" height="59.161" fill="white"/>
</clipPath>
</defs>
</svg>
