<svg width="50" height="50" viewBox="0 0 50 50" fill="none" xmlns="http://www.w3.org/2000/svg">
<path d="M14.7965 7.39844C12.0761 7.39844 9.86424 9.61026 9.86424 12.3307V29.5937C9.86424 32.3142 12.0761 34.526 14.7965 34.526H41.9241C44.6445 34.526 46.8563 32.3142 46.8563 29.5937V12.3307C46.8563 9.61026 44.6445 7.39844 41.9241 7.39844H14.7965ZM28.3603 14.7969C31.7666 14.7969 34.5256 17.5558 34.5256 20.9622C34.5256 24.3686 31.7666 27.1276 28.3603 27.1276C24.9539 27.1276 22.1949 24.3686 22.1949 20.9622C22.1949 17.5558 24.9539 14.7969 28.3603 14.7969ZM14.7965 16.6465V12.9473C14.7965 12.6082 15.074 12.3307 15.4131 12.3307H19.1123C19.4514 12.3307 19.7365 12.6082 19.6903 12.9473C19.4128 15.1822 17.6403 16.947 15.4131 17.2245C15.074 17.263 14.7965 16.9856 14.7965 16.6465ZM14.7965 25.2779C14.7965 24.9389 15.074 24.6537 15.4131 24.6999C17.648 24.9774 19.4128 26.7499 19.6903 28.9772C19.7288 29.3162 19.4514 29.5937 19.1123 29.5937H15.4131C15.074 29.5937 14.7965 29.3162 14.7965 28.9772V25.2779ZM41.3075 17.2245C39.0726 16.947 37.3077 15.1745 37.0303 12.9473C36.9918 12.6082 37.2692 12.3307 37.6083 12.3307H41.3075C41.6466 12.3307 41.9241 12.6082 41.9241 12.9473V16.6465C41.9241 16.9856 41.6466 17.2707 41.3075 17.2245ZM41.9241 25.2779V28.9772C41.9241 29.3162 41.6466 29.5937 41.3075 29.5937H37.6083C37.2692 29.5937 36.9841 29.3162 37.0303 28.9772C37.3077 26.7422 39.0803 24.9774 41.3075 24.6999C41.6466 24.6614 41.9241 24.9389 41.9241 25.2779ZM6.16503 16.6465C6.16503 15.6215 5.34041 14.7969 4.31542 14.7969C3.29044 14.7969 2.46582 15.6215 2.46582 16.6465V36.9921C2.46582 39.7126 4.67764 41.9244 7.3981 41.9244H37.6083C38.6333 41.9244 39.4579 41.0998 39.4579 40.0748C39.4579 39.0498 38.6333 38.2252 37.6083 38.2252H7.3981C6.71991 38.2252 6.16503 37.6703 6.16503 36.9921V16.6465Z" fill="black"/>
</svg>
