<svg width="58" height="58" viewBox="0 0 58 58" fill="none" xmlns="http://www.w3.org/2000/svg">
<rect x="1.90164" y="1.90164" width="54.1967" height="54.1967" fill="black" stroke="black" stroke-width="3.80328"/>
<path d="M29 45.6667C27.6112 45.6667 26.4306 45.1806 25.4584 44.2084C24.4862 43.2362 24 42.0556 24 40.6667C24 40.5278 24.0073 40.375 24.0217 40.2084C24.0362 40.0417 24.0567 39.8889 24.0834 39.75L20.625 37.7917C20.1806 38.1806 19.6806 38.4795 19.125 38.6884C18.5695 38.8973 17.9723 39.0012 17.3334 39C15.9445 39 14.7639 38.5139 13.7917 37.5417C12.8195 36.5695 12.3334 35.3889 12.3334 34C12.3334 32.6112 12.8195 31.4306 13.7917 30.4584C14.7639 29.4862 15.9445 29 17.3334 29C18 29 18.625 29.125 19.2084 29.375C19.7917 29.625 20.3195 29.9723 20.7917 30.4167L25.75 27.9167C25.6667 27.2778 25.7012 26.6528 25.8534 26.0417C26.0056 25.4306 26.2767 24.8612 26.6667 24.3334L25.25 22.1667C25.0556 22.2223 24.8539 22.2639 24.645 22.2917C24.4362 22.3195 24.2212 22.3334 24 22.3334C22.6112 22.3334 21.4306 21.8473 20.4584 20.875C19.4862 19.9028 19 18.7223 19 17.3334C19 15.9445 19.4862 14.7639 20.4584 13.7917C21.4306 12.8195 22.6112 12.3334 24 12.3334C25.3889 12.3334 26.5695 12.8195 27.5417 13.7917C28.5139 14.7639 29 15.9445 29 17.3334C29 17.8889 28.91 18.4239 28.73 18.9384C28.55 19.4528 28.3067 19.9178 28 20.3334L29.4584 22.5C29.6806 22.4445 29.8889 22.4028 30.0834 22.375C30.2778 22.3473 30.4862 22.3334 30.7084 22.3334C31.1806 22.3334 31.625 22.3889 32.0417 22.5C32.4584 22.6112 32.8612 22.7778 33.25 23L36 20.75C35.8889 20.4723 35.8056 20.1878 35.75 19.8967C35.6945 19.6056 35.6667 19.3067 35.6667 19C35.6667 17.6112 36.1528 16.4306 37.125 15.4584C38.0973 14.4862 39.2778 14 40.6667 14C42.0556 14 43.2362 14.4862 44.2084 15.4584C45.1806 16.4306 45.6667 17.6112 45.6667 19C45.6667 20.3889 45.1806 21.5695 44.2084 22.5417C43.2362 23.5139 42.0556 24 40.6667 24C40.1945 24 39.75 23.9378 39.3334 23.8134C38.9167 23.6889 38.5139 23.515 38.125 23.2917L35.375 25.5834C35.4862 25.8612 35.5695 26.1462 35.625 26.4384C35.6806 26.7306 35.7084 27.0289 35.7084 27.3334C35.7084 28.7223 35.2223 29.9028 34.25 30.875C33.2778 31.8473 32.0973 32.3334 30.7084 32.3334C30.0417 32.3334 29.41 32.2084 28.8134 31.9584C28.2167 31.7084 27.6817 31.3612 27.2084 30.9167L22.2917 33.375C22.3473 33.625 22.3684 33.875 22.355 34.125C22.3417 34.375 22.3067 34.625 22.25 34.875L25.75 36.875C26.1945 36.4862 26.6878 36.1873 27.23 35.9784C27.7723 35.7695 28.3623 35.6656 29 35.6667C30.3889 35.6667 31.5695 36.1528 32.5417 37.125C33.5139 38.0973 34 39.2778 34 40.6667C34 42.0556 33.5139 43.2362 32.5417 44.2084C31.5695 45.1806 30.3889 45.6667 29 45.6667ZM17.3334 35.6667C17.8056 35.6667 18.2017 35.5067 18.5217 35.1867C18.8417 34.8667 19.0012 34.4712 19 34C18.9989 33.5289 18.8389 33.1334 18.52 32.8134C18.2012 32.4934 17.8056 32.3334 17.3334 32.3334C16.8612 32.3334 16.4656 32.4934 16.1467 32.8134C15.8278 33.1334 15.6678 33.5289 15.6667 34C15.6656 34.4712 15.8256 34.8673 16.1467 35.1884C16.4678 35.5095 16.8634 35.6689 17.3334 35.6667ZM24 19C24.4723 19 24.8684 18.84 25.1884 18.52C25.5084 18.2 25.6678 17.8045 25.6667 17.3334C25.6656 16.8623 25.5056 16.4667 25.1867 16.1467C24.8678 15.8267 24.4723 15.6667 24 15.6667C23.5278 15.6667 23.1323 15.8267 22.8134 16.1467C22.4945 16.4667 22.3345 16.8623 22.3334 17.3334C22.3323 17.8045 22.4923 18.2006 22.8134 18.5217C23.1345 18.8428 23.53 19.0023 24 19ZM29 42.3334C29.4723 42.3334 29.8684 42.1734 30.1884 41.8534C30.5084 41.5334 30.6678 41.1378 30.6667 40.6667C30.6656 40.1956 30.5056 39.8 30.1867 39.48C29.8678 39.16 29.4723 39 29 39C28.5278 39 28.1323 39.16 27.8134 39.48C27.4945 39.8 27.3345 40.1956 27.3334 40.6667C27.3323 41.1378 27.4923 41.5339 27.8134 41.855C28.1345 42.1761 28.53 42.3356 29 42.3334ZM30.6667 29C31.1389 29 31.535 28.84 31.855 28.52C32.175 28.2 32.3345 27.8045 32.3334 27.3334C32.3323 26.8623 32.1723 26.4667 31.8534 26.1467C31.5345 25.8267 31.1389 25.6667 30.6667 25.6667C30.1945 25.6667 29.7989 25.8267 29.48 26.1467C29.1612 26.4667 29.0012 26.8623 29 27.3334C28.9989 27.8045 29.1589 28.2006 29.48 28.5217C29.8012 28.8428 30.1967 29.0023 30.6667 29ZM40.6667 20.6667C41.1389 20.6667 41.535 20.5067 41.855 20.1867C42.175 19.8667 42.3345 19.4712 42.3334 19C42.3323 18.5289 42.1723 18.1334 41.8534 17.8134C41.5345 17.4934 41.1389 17.3334 40.6667 17.3334C40.1945 17.3334 39.7989 17.4934 39.48 17.8134C39.1612 18.1334 39.0012 18.5289 39 19C38.9989 19.4712 39.1589 19.8673 39.48 20.1884C39.8012 20.5095 40.1967 20.6689 40.6667 20.6667Z" fill="white"/>
</svg>
