<svg width="53" height="32" viewBox="0 0 53 32" fill="none" xmlns="http://www.w3.org/2000/svg">
<path d="M23.8264 31.7796C22.8553 31.7796 22.0243 31.4341 21.3334 30.7432C20.6425 30.0523 20.2965 29.2207 20.2953 28.2485V3.53107C20.2953 2.56002 20.6413 1.72905 21.3334 1.03813C22.0255 0.347222 22.8565 0.00117702 23.8264 0H48.5438C49.5149 0 50.3464 0.346045 51.0385 1.03813C51.7306 1.73022 52.0761 2.5612 52.0749 3.53107V28.2485C52.0749 29.2196 51.7294 30.0511 51.0385 30.7432C50.3476 31.4353 49.516 31.7808 48.5438 31.7796H23.8264ZM25.5919 24.7175H46.7783L40.1575 15.8898L34.8609 22.9519L30.8885 17.6553L25.5919 24.7175Z" fill="#0055FF"/>
<path d="M11.6741 0.142822V31.9224" stroke="#0055FF" stroke-width="4.32375"/>
<path d="M2.16187 0.142822V31.9224" stroke="#0055FF" stroke-width="4.32375"/>
</svg>
