<svg width="50" height="50" viewBox="0 0 50 50" fill="none" xmlns="http://www.w3.org/2000/svg">
<path d="M29.2917 20.7083L27.0833 19.6875C26.9015 19.6046 26.7473 19.4712 26.6392 19.3031C26.531 19.1351 26.4736 18.9394 26.4736 18.7396C26.4736 18.5397 26.531 18.3441 26.6392 18.176C26.7473 18.008 26.9015 17.8745 27.0833 17.7917L29.2917 16.7708L30.3125 14.5833C30.3954 14.4015 30.5288 14.2473 30.6969 14.1392C30.8649 14.031 31.0606 13.9736 31.2604 13.9736C31.4603 13.9736 31.6559 14.031 31.824 14.1392C31.9921 14.2473 32.1255 14.4015 32.2083 14.5833L33.2292 16.7917L35.4167 17.8125C35.5985 17.8954 35.7527 18.0288 35.8608 18.1969C35.969 18.3649 36.0265 18.5606 36.0265 18.7604C36.0265 18.9603 35.969 19.1559 35.8608 19.324C35.7527 19.492 35.5985 19.6255 35.4167 19.7083L33.2083 20.7292L32.1875 22.9167C32.1046 23.0985 31.9712 23.2527 31.8031 23.3608C31.6351 23.469 31.4394 23.5264 31.2396 23.5264C31.0397 23.5264 30.8441 23.469 30.676 23.3608C30.508 23.2527 30.3745 23.0985 30.2917 22.9167L29.2917 20.7083ZM9.27083 27.0833L10.2917 24.875L12.5 23.8542C12.6819 23.7713 12.8361 23.6379 12.9442 23.4698C13.0523 23.3017 13.1098 23.1061 13.1098 22.9062C13.1098 22.7064 13.0523 22.5108 12.9442 22.3427C12.8361 22.1746 12.6819 22.0412 12.5 21.9583L10.2917 20.9375L9.27083 18.75C9.19053 18.5683 9.05918 18.4139 8.89274 18.3055C8.72631 18.1971 8.53196 18.1394 8.33333 18.1394C8.13471 18.1394 7.94036 18.1971 7.77393 18.3055C7.60749 18.4139 7.47614 18.5683 7.39583 18.75L6.375 20.9583L4.16667 21.9792C3.98481 22.062 3.83062 22.1955 3.7225 22.3635C3.61437 22.5316 3.55688 22.7272 3.55688 22.9271C3.55688 23.1269 3.61437 23.3226 3.7225 23.4906C3.83062 23.6587 3.98481 23.7921 4.16667 23.875L6.375 24.8958L7.39583 27.0833C7.75 27.8958 8.91667 27.8958 9.27083 27.0833ZM18.6667 16.6458L19.9792 13.7292L22.8958 12.4167C23.0777 12.3338 23.2319 12.2004 23.34 12.0323C23.4481 11.8642 23.5056 11.6686 23.5056 11.4688C23.5056 11.2689 23.4481 11.0733 23.34 10.9052C23.2319 10.7371 23.0777 10.6037 22.8958 10.5208L19.9792 9.20833L18.6667 6.29167C18.5838 6.1098 18.4504 5.95562 18.2823 5.8475C18.1142 5.73937 17.9186 5.68188 17.7188 5.68188C17.5189 5.68188 17.3233 5.73937 17.1552 5.8475C16.9871 5.95562 16.8537 6.1098 16.7708 6.29167L15.4583 9.20833L12.5417 10.5208C12.3598 10.6037 12.2056 10.7371 12.0975 10.9052C11.9894 11.0733 11.9319 11.2689 11.9319 11.4688C11.9319 11.6686 11.9894 11.8642 12.0975 12.0323C12.2056 12.2004 12.3598 12.3338 12.5417 12.4167L15.4583 13.7292L16.7708 16.6458C17.125 17.4583 18.2917 17.4583 18.6667 16.6458ZM46.5417 17.2292C46.3414 17.0296 46.1027 16.8728 45.84 16.7684C45.5772 16.664 45.296 16.6142 45.0134 16.622C44.7307 16.6298 44.4527 16.6951 44.1961 16.8138C43.9395 16.9325 43.7097 17.1022 43.5208 17.3125L30.2083 32.2708L23.3542 25.4167C23.1614 25.2235 22.9325 25.0703 22.6805 24.9658C22.4284 24.8612 22.1583 24.8074 21.8854 24.8074C21.6126 24.8074 21.3424 24.8612 21.0904 24.9658C20.8383 25.0703 20.6094 25.2235 20.4167 25.4167L7.83333 38.0208C6.97917 38.875 6.97917 40.2917 7.83333 41.1458C8.6875 42 10.1042 42 10.9583 41.1458L21.8958 30.1875L28.6667 36.9583C29.5208 37.8125 30.8958 37.7708 31.6875 36.875L46.625 20.0625C47.3542 19.25 47.3125 18 46.5417 17.2292Z" fill="#FFD700"/>
</svg>
