<svg width="496" height="233" viewBox="0 0 496 233" fill="none" xmlns="http://www.w3.org/2000/svg">
<rect x="49.5643" y="72.8338" width="415" height="112.511" transform="rotate(-2.99774 49.5643 72.8338)" fill="black" stroke="black" stroke-width="4.61111"/>
<rect x="44.9532" y="69.145" width="415" height="112.511" transform="rotate(-2.99774 44.9532 69.145)" fill="#0055FF" stroke="black" stroke-width="4.61111"/>
<path d="M274.469 77.9011L246.921 125.102L243.823 125.264L239.786 150.942L226.158 151.657L230.196 125.978L227.099 126.141L213.286 79.8653L227.739 79.1078L237.393 113.179L239.251 113.081L259.537 77.4414L274.404 76.6623L274.469 77.9011ZM273.119 104.888C274.719 94.5897 277.872 86.9363 282.579 81.9276C287.354 76.9153 294.112 74.1801 302.853 73.722C306.501 73.5308 309.767 73.9463 312.65 74.9684C315.529 75.9218 317.987 77.3803 320.022 79.3441C322.054 81.2391 323.624 83.5378 324.732 86.2404C325.908 88.9393 326.58 91.8718 326.745 95.0378C326.807 96.2078 326.799 97.3815 326.723 98.5588C326.715 99.7324 326.605 100.911 326.391 102.096L323.828 118.38C322.228 128.678 319.04 136.333 314.265 141.345C309.558 146.354 302.835 149.088 294.094 149.546C290.446 149.737 287.182 149.356 284.303 148.402C281.42 147.38 278.962 145.922 276.93 144.027C274.895 142.063 273.291 139.766 272.118 137.136C271.01 134.433 270.371 131.465 270.202 128.23C270.14 127.06 270.113 125.888 270.121 124.714C270.197 123.537 270.342 122.356 270.556 121.172L273.119 104.888ZM294.683 137.092C297.023 136.969 299.067 136.448 300.813 135.528C302.555 134.54 304.043 133.289 305.275 131.775C306.575 130.257 307.586 128.479 308.308 126.44C309.098 124.397 309.674 122.227 310.037 119.931L312.926 101.973C313.075 100.861 313.164 99.925 313.193 99.1643C313.288 98.3312 313.315 97.5361 313.275 96.779C313.091 93.2688 312.02 90.5989 310.06 88.7692C308.166 86.867 305.567 86.0025 302.264 86.1756C299.924 86.2982 297.882 86.8538 296.14 87.8423C294.394 88.762 292.87 89.9806 291.569 91.4981C290.337 93.012 289.326 94.7904 288.536 96.8332C287.815 98.8725 287.273 101.04 286.91 103.337L284.021 121.294C283.705 123.174 283.589 124.906 283.672 126.489C283.856 129.999 284.895 132.705 286.789 134.607C288.748 136.437 291.38 137.265 294.683 137.092ZM388.649 70.6749L381.113 118.483C380.395 123.214 379.296 127.274 377.817 130.665C376.408 134.051 374.556 136.909 372.262 139.238C369.965 141.497 367.226 143.228 364.046 144.43C360.93 145.56 357.273 146.235 353.075 146.455C349.978 146.617 347.062 146.287 344.327 145.464C341.596 144.71 339.222 143.523 337.204 141.903C335.183 140.215 333.556 138.126 332.321 135.637C331.083 133.079 330.377 130.149 330.204 126.845C330.146 125.744 330.125 124.675 330.139 123.639C330.15 122.534 330.292 121.285 330.564 119.89L337.855 73.3369L351.483 72.6227L343.947 120.431C343.849 121.195 343.749 121.925 343.647 122.621C343.615 123.313 343.616 124.003 343.652 124.691C343.808 127.65 344.72 129.915 346.389 131.484C348.128 133.049 350.614 133.747 353.849 133.577C357.979 133.361 361.087 132.094 363.174 129.776C365.33 127.454 366.767 123.928 367.485 119.197L375.021 71.3891L388.649 70.6749ZM434.796 140.722L420.962 141.447L424.471 119.524C424.573 118.828 424.613 118.274 424.591 117.861C424.53 116.691 424.103 115.782 423.31 115.133C422.513 114.416 421.323 114.098 419.74 114.181L404.77 114.966L400.417 142.524L386.893 143.233L398.385 70.1647L423.782 68.8337C427.154 68.6569 430.139 68.9836 432.736 69.8137C435.398 70.5714 437.631 71.6967 439.435 73.1895C441.304 74.6099 442.707 76.3652 443.645 78.4556C444.651 80.5423 445.216 82.7557 445.339 85.0958C445.602 90.1201 444.647 94.2766 442.472 97.5652C440.363 100.781 436.976 103.305 432.31 105.137L432.407 106.996C434.414 107.098 435.966 107.741 437.063 108.926C438.226 110.038 438.856 111.523 438.953 113.382C438.989 114.07 438.957 114.762 438.855 115.457L434.796 140.722ZM406.876 101.812L419.265 101.162C422.913 100.971 425.856 99.8508 428.095 97.8011C430.334 95.7513 431.367 93.0746 431.194 89.7709C431.057 87.1555 430.228 85.163 428.707 83.7934C427.255 82.4202 425.083 81.8094 422.192 81.9609L409.907 82.6047L406.876 101.812Z" fill="white"/>
<path d="M46.8112 82.5889L69.8667 179.422" stroke="#004BE1" stroke-width="2.76667"/>
<path d="M62.0278 68.7555L91.5389 177.117" stroke="#004BE1" stroke-width="2.76667"/>
<path d="M86.0056 65.9888L115.978 177.117" stroke="#004BE1" stroke-width="2.76667"/>
<path d="M110.444 65.7583L139.956 177.347" stroke="#004BE1" stroke-width="2.76667"/>
<path d="M134.422 65.5277L164.394 177.578" stroke="#004BE1" stroke-width="2.76667"/>
<path d="M25.0083 209.174L82.7192 124.11L142.568 111.125L178.926 24.3627M176.768 20.6106L189.196 57.6662M179.381 21.8621L147.48 45.5875" stroke="black" stroke-width="13.8333"/>
<path d="M47.6025 175.974L82.7191 124.11L142.568 111.125L163.341 61.6187" stroke="white" stroke-width="13.8333"/>
<path d="M161.958 61.1576L155.964 62.0799L158.269 57.4688L161.958 61.1576Z" fill="black" stroke="black" stroke-width="1.02469"/>
<path d="M181.144 12.9531L174.136 18.5163L177.79 22.6999L182.937 20.3861L181.144 12.9531Z" fill="black" stroke="black" stroke-width="2.10758"/>
<path d="M48.0636 163.524L48.5044 177.064L41.5878 173.375L48.0636 163.524Z" fill="black" stroke="black" stroke-width="1.02469"/>
<path d="M52.8057 168.355L218.806 159.594" stroke="white" stroke-width="2.76667"/>
<rect x="44.9532" y="69.145" width="415" height="112.511" transform="rotate(-2.99774 44.9532 69.145)" stroke="black" stroke-width="4.61111"/>
</svg>
